<svg width="24" height="24" viewBox="0 0 24 24" fill="none" xmlns="http://www.w3.org/2000/svg">
<g clip-path="url(#clip0_2_573)">
<path d="M23.6378 14.9019C22.0358 21.3361 15.5235 25.2421 9.09905 23.6409C2.67305 22.0509 -1.2412 15.5229 0.363799 9.10514C1.96205 2.67239 8.47805 -1.24186 14.8988 0.359386C21.3285 1.96514 25.2428 8.47364 23.6378 14.9064V14.9019ZM17.2898 10.2894C17.5275 8.69939 16.3125 7.84064 14.649 7.26239L15.189 5.10914L13.872 4.77689L13.3493 6.88664C13.005 6.79664 12.6465 6.71864 12.2865 6.63689L12.8108 4.50764L11.49 4.17989L10.9508 6.34364L10.1108 6.14489L8.2988 5.69114L7.94705 7.10189C7.94705 7.10189 8.9243 7.32389 8.9003 7.33589C9.43655 7.47314 9.5333 7.81964 9.5183 8.10164L8.04155 14.0229C7.9673 14.1879 7.7993 14.4301 7.4288 14.3356C7.4408 14.3544 6.46805 14.0979 6.46805 14.0979L5.80805 15.6046L7.5188 16.0306L8.44805 16.2729L7.90505 18.4651L9.2258 18.7891L9.7688 16.6209C10.128 16.7229 10.4715 16.8121 10.815 16.8946L10.308 19.0464L11.628 19.3786L12.171 17.1879C14.4128 17.6131 16.101 17.4451 16.812 15.4141C17.382 13.7769 16.7798 12.8364 15.597 12.2191C16.4483 12.0234 17.097 11.4571 17.2763 10.2894H17.2898ZM14.2778 14.5119C13.8758 16.1521 11.1218 15.2619 10.2278 15.0391L10.95 12.1411C11.8448 12.3714 14.7038 12.8124 14.2778 14.5119ZM14.6888 10.2699C14.3168 11.7616 12.0278 11.0079 11.2815 10.8196L11.9385 8.17964C12.6803 8.35889 15.0743 8.70239 14.6888 10.2654V10.2699Z" fill="url(#paint0_linear_2_573)"/>
</g>
<defs>
<linearGradient id="paint0_linear_2_573" x1="2.21386" y1="-23.7579" x2="38.2209" y2="-13.5335" gradientUnits="userSpaceOnUse">
<stop stop-color="#FF6A16"/>
<stop offset="1" stop-color="#FFA216"/>
</linearGradient>
<clipPath id="clip0_2_573">
<rect width="24" height="24" fill="white"/>
</clipPath>
</defs>
</svg>
