<svg width="24" height="24" viewBox="0 0 24 24" fill="none" xmlns="http://www.w3.org/2000/svg">
<g clip-path="url(#clip0_2_584)">
<path d="M12 0C9.62663 0 7.30655 0.703788 5.33316 2.02236C3.35977 3.34094 1.8217 5.21509 0.913451 7.4078C0.00519961 9.60051 -0.232441 12.0133 0.230582 14.3411C0.693605 16.6689 1.83649 18.8071 3.51472 20.4853C5.19295 22.1635 7.33115 23.3064 9.65892 23.7694C11.9867 24.2324 14.3995 23.9948 16.5922 23.0866C18.7849 22.1783 20.6591 20.6402 21.9776 18.6668C23.2962 16.6935 24 14.3734 24 12C24 8.8174 22.7357 5.76515 20.4853 3.51472C18.2348 1.26428 15.1826 0 12 0ZM11.738 3.678H14.322C14.3749 3.67807 14.427 3.69035 14.4743 3.71389C14.5216 3.73743 14.5629 3.77158 14.5948 3.8137C14.6268 3.85581 14.6486 3.90473 14.6585 3.95665C14.6684 4.00857 14.6662 4.06208 14.652 4.113L12.622 11.031L14.527 10.449L14.119 11.834L12.195 12.394L10.947 16.608H17.623C17.6759 16.6083 17.728 16.6208 17.7753 16.6446C17.8226 16.6684 17.8637 16.7028 17.8955 16.7451C17.9272 16.7874 17.9488 16.8365 17.9584 16.8885C17.968 16.9406 17.9655 16.9941 17.951 17.045L17.369 19.045C17.3411 19.1401 17.2832 19.2237 17.2039 19.2832C17.1246 19.3427 17.0281 19.3749 16.929 19.375H6.73301L8.45601 13.553L6.55001 14.133L6.97001 12.772L8.88001 12.192L11.302 4.012C11.3286 3.91635 11.3856 3.83198 11.4645 3.7717C11.5434 3.71142 11.6397 3.67852 11.739 3.678H11.738Z" fill="url(#paint0_linear_2_584)"/>
</g>
<defs>
<linearGradient id="paint0_linear_2_584" x1="2.21053" y1="-23.76" x2="38.2258" y2="-13.5312" gradientUnits="userSpaceOnUse">
<stop stop-color="#FF6A16"/>
<stop offset="1" stop-color="#FFA216"/>
</linearGradient>
<clipPath id="clip0_2_584">
<rect width="24" height="24" fill="white"/>
</clipPath>
</defs>
</svg>
