<svg width="20" height="20" viewBox="0 0 20 20" fill="none" xmlns="http://www.w3.org/2000/svg">
<g clip-path="url(#clip0_2_492)">
<path d="M19.8255 18.98L14.9652 14.1197C16.269 12.6208 17.0584 10.6652 17.0584 8.52772C17.0584 3.82262 13.2313 0 8.53065 0C3.82555 0 0.00292969 3.82705 0.00292969 8.52772C0.00292969 13.2284 3.82998 17.0554 8.53065 17.0554C10.6681 17.0554 12.6238 16.2661 14.1227 14.9623L18.983 19.8226C19.0983 19.9379 19.2535 20 19.4043 20C19.555 20 19.7102 19.9424 19.8255 19.8226C20.0561 19.592 20.0561 19.2106 19.8255 18.98ZM1.19583 8.52772C1.19583 4.48337 4.4863 1.19734 8.52621 1.19734C12.5706 1.19734 15.8566 4.4878 15.8566 8.52772C15.8566 12.5676 12.5706 15.8625 8.52621 15.8625C4.4863 15.8625 1.19583 12.5721 1.19583 8.52772Z" fill="#C7CED5"/>
</g>
<defs>
<clipPath id="clip0_2_492">
<rect width="20" height="20" fill="white"/>
</clipPath>
</defs>
</svg>
