<?xml version="1.0" standalone="no"?>
<!DOCTYPE svg PUBLIC "-//W3C//DTD SVG 1.1//EN" "http://www.w3.org/Graphics/SVG/1.1/DTD/svg11.dtd" >
<svg xmlns="http://www.w3.org/2000/svg">
<metadata>Generated by IcoMoon</metadata>
<defs>
<font id="icomoon" horiz-adv-x="1024">
<font-face units-per-em="1024" ascent="960" descent="-64" />
<missing-glyph horiz-adv-x="1024" />
<glyph unicode="&#x20;" horiz-adv-x="512" d="" />
<glyph unicode="&#xe905;" glyph-name="youtube" d="M174.2 825.8c-88.8-10.4-161.2-84-172-174.8-3-24.6-3-352.2 0-378.4 5-45.6 27.6-91 61.2-123 22.6-21.4 55.2-39 89.6-48.2l16-4.4 318-0.6c343.2-0.8 339-0.8 372 10 65 21.2 111.8 71 130.6 139.2l5.4 19.4v195c0 182.8-0.2 196-3.8 210.8-9.4 40.6-27.4 73.4-54.8 99.6-33 31.6-72.6 50.4-117.4 55.6-22.2 2.4-623 2.2-644.8-0.2zM837 783.2c57.6-17.4 93.8-52.6 113.2-110.2l4.8-14 0.6-190c0.4-165.4 0.2-192-2.6-205.4-11.6-57.2-50.4-100.6-108-121l-16-5.6-323-0.6c-356.2-0.6-337.6-1.2-368.4 11.8-45 19.2-76.6 54.8-92 103.8l-4.6 15v388l4.6 16c16.8 58.4 65.6 103.2 124.2 113.8 12.6 2.4 69 2.8 335.2 2.4 302.8-0.2 320.6-0.6 332-4zM373.8 630.4l-6.8-6-0.6-166.8c-0.4-91.6 0-169.6 0.6-173.4 1.8-9.8 9.2-16.2 18.4-16.2 8.4 0 22.2 7.4 121.6 66 28.6 16.8 75.8 44.6 105 61.6 69.4 40.6 71 41.6 73.6 47.4 6.4 13.8 1.8 20-27 36.8-11.8 7-38.6 22.8-59.6 35.2-20.8 12.2-57.8 34-82 48-24.2 14.2-61.6 36-83 48.6-44.8 26.2-50 27.8-60.2 18.8zM449.4 556.8c21.8-12.8 69.8-40.8 106.6-62.2 36.8-21.6 68.2-40.2 69.6-41.4 2.6-2.4-8-9.2-89.6-56.4-19.2-11-45.4-26.4-58-33.8-46.2-27.2-70-41-71-41-0.6 0-1 58-1 129 0 83 0.6 129 2 129 1 0 19.8-10.4 41.4-23.2z" />
<glyph unicode="&#xe906;" glyph-name="alarm" horiz-adv-x="1057" d="M1015.742 646.194c-52.852 122.219-150.297 219.665-272.516 272.516 33.032 26.426 74.323 41.29 120.568 41.29 105.703 0 193.239-87.535 193.239-193.239 0-46.245-14.865-87.535-41.29-120.568zM1007.484 431.484c0-127.174-49.548-242.787-130.477-328.671l66.065-66.065c9.91-9.91 14.865-21.471 14.865-34.684 0-28.077-21.471-49.548-49.548-49.548-13.213 0-24.774 4.955-34.684 14.865l-71.019 71.019c-77.626-54.503-171.768-85.884-274.168-85.884s-196.542 31.381-274.168 85.884l-71.019-71.019c-8.258-9.91-21.471-14.865-34.684-14.865-28.077 0-49.548 21.471-49.548 49.548 0 13.213 4.955 26.426 14.865 34.684l66.065 66.065c-80.929 85.884-130.477 201.497-130.477 328.671 0 264.258 214.71 478.968 478.968 478.968s478.968-214.71 478.968-478.968zM528.516 811.355c-209.755 0-379.871-170.116-379.871-379.871s170.116-379.871 379.871-379.871c209.755 0 379.871 170.116 379.871 379.871s-170.116 379.871-379.871 379.871zM726.71 381.935h-198.194c-28.077 0-49.548 21.471-49.548 49.548v264.258c0 28.077 21.471 49.548 49.548 49.548s49.548-21.471 49.548-49.548v-214.71h148.645c28.077 0 49.548-21.471 49.548-49.548s-21.471-49.548-49.548-49.548zM42.942 639.587c-26.426 33.032-42.942 75.974-42.942 122.219 0 109.006 89.187 198.194 198.194 198.194 46.245 0 89.187-16.516 122.219-42.942-123.871-52.852-224.619-153.6-277.471-277.471z" />
<glyph unicode="&#xe90f;" glyph-name="book" d="M993.6 131.2l-462.4-192q-9.6-3.2-19.2-3.2t-19.2 3.2l-462.4 192c-17.6 8-30.4 24-30.4 44.8v736c0 27.2 20.8 48 48 48q9.6 0 17.6-3.2h1.6q0 0 0 0l444.8-185.6 444.8 185.6q0 0 0 0h1.6q8 3.2 17.6 3.2c27.2 0 48-20.8 48-48v-736c0-20.8-12.8-36.8-30.4-44.8zM464 688l-368 152v-632l368-152zM928 840l-368-152v-632l368 152zM636.8 619.2l176 80q8 4.8 19.2 4.8c27.2 0 48-22.4 48-48 0-19.2-11.2-36.8-28.8-43.2l-176-80q-8-4.8-19.2-4.8c-27.2 0-48 20.8-48 48 0 19.2 11.2 35.2 28.8 43.2zM636.8 443.2l176 80q8 4.8 19.2 4.8c27.2 0 48-22.4 48-48 0-19.2-11.2-36.8-28.8-43.2l-176-80q-8-4.8-19.2-4.8c-27.2 0-48 20.8-48 48 0 19.2 11.2 35.2 28.8 43.2zM636.8 267.2l176 80q8 4.8 19.2 4.8c27.2 0 48-22.4 48-48 0-19.2-11.2-36.8-28.8-43.2l-176-80q-8-4.8-19.2-4.8c-27.2 0-48 20.8-48 48 0 19.2 11.2 35.2 28.8 43.2zM192 704q11.2 0 19.2-4.8l176-80c17.6-8 28.8-24 28.8-43.2 0-27.2-20.8-48-48-48q-11.2 0-19.2 4.8l-176 80c-17.6 6.4-28.8 24-28.8 43.2 0 25.6 20.8 48 48 48zM192 528q11.2 0 19.2-4.8l176-80c17.6-8 28.8-24 28.8-43.2 0-27.2-20.8-48-48-48q-11.2 0-19.2 4.8l-176 80c-17.6 6.4-28.8 24-28.8 43.2 0 25.6 20.8 48 48 48zM192 352q11.2 0 19.2-4.8l176-80c17.6-8 28.8-24 28.8-43.2 0-27.2-20.8-48-48-48q-11.2 0-19.2 4.8l-176 80c-17.6 6.4-28.8 24-28.8 43.2 0 25.6 20.8 48 48 48z" />
<glyph unicode="&#xe910;" glyph-name="bulsaye" d="M512-64c-283.2 0-512 228.8-512 512s228.8 512 512 512c283.2 0 512-228.8 512-512s-228.8-512-512-512zM512 864c-230.4 0-416-185.6-416-416s185.6-416 416-416c230.4 0 416 185.6 416 416s-185.6 416-416 416zM512 144c-168 0-304 136-304 304s136 304 304 304c168 0 304-136 304-304s-136-304-304-304zM512 656c-115.2 0-208-92.8-208-208s92.8-208 208-208c115.2 0 208 92.8 208 208s-92.8 208-208 208zM512 352c-52.8 0-96 43.2-96 96s43.2 96 96 96c52.8 0 96-43.2 96-96s-43.2-96-96-96z" />
<glyph unicode="&#xe911;" glyph-name="cart" horiz-adv-x="1229" d="M1211.733 710.827l-170.667-375.467c-6.827-20.48-27.307-34.133-47.787-34.133l-484.693-30.72 27.307-81.92h529.067c61.44 0 112.64-51.2 112.64-112.64s-51.2-112.64-112.64-112.64c-61.44 0-112.64 51.2-112.64 112.64h-525.653c0-61.44-51.2-112.64-112.64-112.64s-112.64 51.2-112.64 112.64c0 61.44 51.2 112.64 112.64 112.64h102.4l-218.453 621.227h-129.707c-30.72 0-54.613 23.893-54.613 54.613s23.893 58.027 54.613 58.027h170.667c23.893 0 44.373-17.067 54.613-40.96l30.72-92.16h832.853c34.133 0 58.027-23.893 58.027-54.613q0-13.653-3.413-23.893zM365.227 676.693l102.4-296.96 484.693 30.72 119.467 266.24z" />
<glyph unicode="&#xe912;" glyph-name="down-arrow" horiz-adv-x="1877" d="M268.8 917.333l669.867-674.133 678.4 682.667c25.6 21.333 55.467 34.133 89.6 34.133 72.533 0 128-55.467 128-128 0-34.133-12.8-64-34.133-89.6l-768-768c-25.6-21.333-59.733-38.4-93.867-38.4q0 0 0 0t0 0c-38.4 0-68.267 17.067-93.867 38.4l-768 768c-21.333 25.6-34.133 55.467-34.133 89.6 0 72.533 55.467 128 128 128 38.4 0 72.533-17.067 98.133-42.667z" />
<glyph unicode="&#xe913;" glyph-name="dribbble" d="M1024 448c0 34.133-3.2 68.267-9.6 102.4-6.4 32-17.067 64-32 96-12.8 29.867-27.733 58.667-44.8 86.4-19.2 27.733-40.533 53.333-64 76.8s-49.067 43.733-76.8 60.8c-25.6 19.2-54.4 35.2-86.4 48-29.867 12.8-61.867 22.4-96 28.8-34.133 8.533-68.267 12.8-102.4 12.8s-68.267-4.267-102.4-12.8c-34.133-6.4-66.133-16-96-28.8-32-12.8-60.8-28.8-86.4-48-27.733-17.067-53.333-37.333-76.8-60.8s-44.8-49.067-64-76.8c-17.067-27.733-32-56.533-44.8-86.4-14.933-32-25.6-64-32-96-6.4-34.133-9.6-68.267-9.6-102.4 0-36.267 3.2-71.467 9.6-105.6 6.4-32 17.067-64 32-96 12.8-29.867 27.733-58.667 44.8-86.4 19.2-27.733 40.533-52.267 64-73.6 23.467-23.467 49.067-44.8 76.8-64 25.6-19.2 54.4-35.2 86.4-48 29.867-12.8 61.867-22.4 96-28.8s68.267-9.6 102.4-9.6c34.133 0 68.267 3.2 102.4 9.6s66.133 16 96 28.8c32 12.8 60.8 28.8 86.4 48 27.733 19.2 53.333 40.533 76.8 64 23.467 21.333 44.8 45.867 64 73.6 17.067 27.733 32 56.533 44.8 86.4 14.933 32 25.6 64 32 96 6.4 34.133-331.733 240 9.6 105.6zM950.4 451.2c-6.4 0-156.8 32-307.2 16q-3.2 9.6-9.6 22.4-12.8 32-28.8 60.8c172.8 70.4 243.2 172.8 246.4 172.8 60.8-73.6 96-169.6 99.2-272zM800 774.4c0 0-64-96-227.2-156.8-73.6 137.6-156.8 246.4-163.2 252.8q48 12.8 102.4 12.8c112 0 211.2-41.6 288-108.8zM406.4 870.4c0 0 0 0 0 0s0 0 0 0-135.467 29.867 0 0zM326.4 841.6c6.4-6.4 86.4-115.2 160-249.6-208-57.6-390.4-54.4-403.2-54.4 28.8 134.4 121.6 246.4 243.2 304zM73.6 448q0 6.4 0 12.8c9.6 0 224-6.4 451.2 60.8q19.2-35.2 35.2-73.6-9.6 0-19.2-3.2c-233.6-76.8-355.2-291.2-355.2-291.2q0 0 0 0c-67.2 80-112 182.4-112 294.4zM512 9.6c-105.6 0-201.6 38.4-278.4 99.2 6.4-3.2 9.6-6.4 9.6-6.4s83.2 182.4 342.4 272q3.2 0 3.2 3.2c60.8-160 86.4-294.4 92.8-332.8-51.2-22.4-108.8-35.2-169.6-35.2zM755.2 83.2c-3.2 28.8-25.6 156.8-83.2 313.6 140.8 22.4 262.4-16 272-19.2-19.2-121.6-89.6-227.2-188.8-294.4z" />
<glyph unicode="&#xe914;" glyph-name="equalizer" horiz-adv-x="896" d="M848 432h-96c-27.2 0-48 20.8-48 48v192c0 27.2 20.8 48 48 48h96c27.2 0 48-20.8 48-48v-192c0-27.2-20.8-48-48-48zM752 912c0 27.2 20.8 48 48 48s48-20.8 48-48v-144h-96zM496 176h-96c-27.2 0-48 20.8-48 48v192c0 27.2 20.8 48 48 48h96c27.2 0 48-20.8 48-48v-192c0-27.2-20.8-48-48-48zM400 912c0 27.2 20.8 48 48 48s48-20.8 48-48v-400h-96zM144 304h-96c-27.2 0-48 20.8-48 48v192c0 27.2 20.8 48 48 48h96c27.2 0 48-20.8 48-48v-192c0-27.2-20.8-48-48-48zM48 912c0 27.2 20.8 48 48 48s48-20.8 48-48v-272h-96zM144-16c0-27.2-20.8-48-48-48s-48 20.8-48 48v272h96zM496-16c0-27.2-20.8-48-48-48s-48 20.8-48 48v144h96zM848-16c0-27.2-20.8-48-48-48s-48 20.8-48 48v400h96z" />
<glyph unicode="&#xe915;" glyph-name="facebook" horiz-adv-x="473" d="M476.554 952.123c0-59.077 0-161.477 0-161.477s-120.123 11.815-149.662-35.446c-15.754-23.631-7.877-98.462-7.877-149.662 51.2 0 106.338 0 157.538 0-13.785-63.015-21.662-104.369-31.508-157.538-45.292 0-128 0-128 0v-504.123c0 0-149.662 0-218.585 0 0 155.569 0 336.738 0 502.154-35.446 0-61.046 0-94.523 0 0 59.077 0 100.431 0 159.508 33.477 0 59.077 0 92.554 0 5.908 116.185 5.908 230.4 64.985 289.477 64.985 64.985 126.031 57.108 315.077 57.108z" />
<glyph unicode="&#xe916;" glyph-name="google" horiz-adv-x="1170" d="M987.429 689.371v-179.2h-73.143v179.2h-182.857v73.143h182.857v175.543h73.143v-175.543h182.857v-73.143zM482.743 868.571c62.171-36.571 102.4-95.086 102.4-171.886 0-62.171-40.229-113.371-91.429-153.6-51.2-36.571-58.514-51.2-58.514-84.114 0-29.257 51.2-76.8 80.457-95.086 80.457-58.514 106.057-109.714 106.057-197.486 0-109.714-106.057-230.4-299.886-230.4-171.886 0-321.829 80.457-321.829 190.171s135.314 219.429 307.2 219.429c18.286 0 36.571 0 54.857 0-25.6 21.943-43.886 51.2-43.886 84.114 0 18.286 7.314 40.229 18.286 58.514-10.971 0-21.943 0-29.257 0-142.629 0-237.714 102.4-237.714 223.086s131.657 230.4 270.629 230.4c76.8 0 307.2 0 307.2 0l-69.486-73.143zM343.771 316.343c-120.686 0-226.743-69.486-226.743-157.257s87.771-153.6 204.8-153.6c168.229 0 226.743 58.514 226.743 149.943q0 14.629-3.657 29.257c-14.629 51.2-62.171 76.8-124.343 120.686q-36.571 10.971-76.8 10.971zM475.429 696.686c-10.971 102.4-91.429 186.514-171.886 186.514-80.457 3.657-131.657-76.8-117.029-179.2 10.971-102.4 87.771-186.514 168.229-190.171 76.8 0 135.314 80.457 120.686 182.857z" />
<glyph unicode="&#xe917;" glyph-name="home" horiz-adv-x="1057" d="M1057.032 414.968c0-28.077-21.471-49.548-49.548-49.548-13.213 0-24.774 4.955-33.032 13.213l-445.935 445.935-444.284-444.284c-8.258-9.91-21.471-14.865-34.684-14.865-28.077 0-49.548 21.471-49.548 49.548 0 14.865 6.606 26.426 14.865 36.335l477.316 477.316c9.91 8.258 23.123 14.865 36.335 14.865q0 0 0 0 1.652 0 3.303 0 0 0 0 0 1.652 0 1.652 0t0 0c13.213-1.652 23.123-6.606 31.381-16.516l194.89-194.89v46.245c0 28.077 21.471 49.548 49.548 49.548s49.548-21.471 49.548-49.548v-145.342l184.981-184.981c8.258-8.258 13.213-19.819 13.213-33.032zM957.935 332.387v-346.839c0-28.077-21.471-49.548-49.548-49.548h-99.097v396.387h-198.194v-396.387h-462.452c-28.077 0-49.548 21.471-49.548 49.548v346.839l429.419 429.419zM445.935 332.387h-198.194v-198.194h198.194z" />
<glyph unicode="&#xe918;" glyph-name="image" d="M976-64h-928c-27.2 0-48 20.8-48 48v928c0 27.2 20.8 48 48 48h928c27.2 0 48-20.8 48-48v-928c0-27.2-20.8-48-48-48zM928 864h-832v-832h832zM208 816h176c27.2 0 48-20.8 48-48s-20.8-48-48-48h-144v-144c0-27.2-20.8-48-48-48s-48 20.8-48 48v240h64zM144 320c0 27.2 20.8 48 48 48s48-20.8 48-48v-144h144c27.2 0 48-20.8 48-48s-20.8-48-48-48h-240v64zM640 816h240v-240c0-27.2-20.8-48-48-48s-48 20.8-48 48v144h-144c-27.2 0-48 20.8-48 48s20.8 48 48 48zM640 176h144v144c0 27.2 20.8 48 48 48s48-20.8 48-48v-240h-240c-27.2 0-48 20.8-48 48s20.8 48 48 48z" />
<glyph unicode="&#xe919;" glyph-name="instagram1" d="M894.031-56.123h-756.185c-68.923 0-126.031 57.108-126.031 126.031v756.185c0 68.923 57.108 126.031 126.031 126.031h756.185c68.923 0 126.031-57.108 126.031-126.031v-756.185c0-68.923-57.108-126.031-126.031-126.031zM515.938 642.954c-78.769 0-145.723-45.292-177.231-112.246q0-1.969 0-1.969-3.938-7.877-5.908-13.785-1.969-1.969-1.969-5.908-1.969-5.908-3.938-13.785-1.969-1.969-1.969-5.908-1.969-7.877-1.969-13.785 0-3.938-1.969-5.908 0-11.815 0-21.662c0-108.308 86.646-194.954 194.954-194.954s194.954 86.646 194.954 194.954q0 9.846 0 21.662-1.969 1.969-1.969 5.908 0 5.908-1.969 13.785 0 3.938-1.969 5.908-1.969 7.877-3.938 13.785 0 3.938-1.969 5.908-1.969 5.908-5.908 13.785 0 0 0 1.969c-31.508 66.954-98.462 112.246-177.231 112.246zM905.846 788.677c0 27.569-21.662 49.231-49.231 49.231h-100.431c-29.538 0-51.2-21.662-51.2-49.231v-100.431c0-29.538 21.662-51.2 51.2-51.2h100.431c27.569 0 49.231 21.662 49.231 51.2zM905.846 528.738h-92.554q11.815-39.385 11.815-80.738c0-171.323-137.846-309.169-309.169-309.169s-309.169 137.846-309.169 309.169q0 41.354 11.815 80.738h-92.554v-421.415c0-27.569 21.662-51.2 49.231-51.2h681.354c27.569 0 49.231 23.631 49.231 51.2z" />
<glyph unicode="&#xe91a;" glyph-name="left-arrow" horiz-adv-x="559" d="M558.545 29.091c0-39.564-30.255-69.818-69.818-69.818-18.618 0-34.909 6.982-48.873 18.618l-418.909 418.909c-11.636 13.964-20.945 30.255-20.945 51.2q0 0 0 0t0 0c0 20.945 9.309 37.236 20.945 51.2l418.909 418.909c13.964 11.636 30.255 18.618 48.873 18.618 39.564 0 69.818-30.255 69.818-69.818 0-18.618-6.982-34.909-18.618-48.873l-372.364-370.036 367.709-365.382c13.964-13.964 23.273-32.582 23.273-53.527z" />
<glyph unicode="&#xe91b;" glyph-name="line" horiz-adv-x="57" d="M0 931.556c0 15.929 12.516 28.444 28.444 28.444s28.444-12.516 28.444-28.444v-967.111c0-15.929-12.516-28.444-28.444-28.444s-28.444 12.516-28.444 28.444z" />
<glyph unicode="&#xe91c;" glyph-name="line-graph" d="M976-64h-928c-27.2 0-48 20.8-48 48v928c0 27.2 20.8 48 48 48h928c27.2 0 48-20.8 48-48v-928c0-27.2-20.8-48-48-48zM928 864h-832v-832h832zM166.4 440l128 80q11.2 8 25.6 8c9.6 0 19.2-3.2 27.2-8l212.8-142.4 243.2 172.8c8 6.4 17.6 9.6 28.8 9.6 27.2 0 48-22.4 48-48 0-16-8-30.4-19.2-38.4l-272-192c-8-6.4-17.6-9.6-28.8-9.6-9.6 0-19.2 3.2-27.2 8l-212.8 142.4-100.8-62.4c-8-4.8-17.6-8-27.2-8-27.2 0-48 20.8-48 48 0 16 9.6 32 22.4 40z" />
<glyph unicode="&#xe91d;" glyph-name="pc" horiz-adv-x="1170" d="M1097.143 118.857h-347.429v-91.429l73.143-73.143v-18.286h-475.429v18.286l73.143 73.143v91.429h-347.429c-31.086 0-54.857 23.771-54.857 54.857v731.429c0 31.086 23.771 54.857 54.857 54.857h1024c31.086 0 54.857-23.771 54.857-54.857v-731.429c0-31.086-23.771-54.857-54.857-54.857zM1078.857 886.857h-987.429v-621.714h987.429zM475.429 630.857c14.629 0 29.257-5.486 38.4-16.457l34.743-34.743 107.886 107.886c9.143 10.971 23.771 16.457 38.4 16.457 31.086 0 54.857-23.771 54.857-54.857 0-14.629-5.486-29.257-16.457-38.4l-146.286-146.286c-9.143-10.971-23.771-16.457-38.4-16.457s-29.257 5.486-38.4 16.457l-73.143 73.143c-10.971 9.143-16.457 23.771-16.457 38.4 0 31.086 23.771 54.857 54.857 54.857z" />
<glyph unicode="&#xe91e;" glyph-name="picture" d="M1024 140.8c0-22.187-13.653-40.96-34.133-47.787v-58.027c20.48-6.827 34.133-25.6 34.133-47.787 0-29.013-22.187-51.2-51.2-51.2-22.187 0-40.96 13.653-47.787 34.133h-58.027c-6.827-20.48-25.6-34.133-47.787-34.133s-40.96 13.653-47.787 34.133h-58.027c-6.827-20.48-25.6-34.133-47.787-34.133s-40.96 13.653-47.787 34.133h-58.027c-6.827-20.48-25.6-34.133-47.787-34.133s-40.96 13.653-47.787 34.133h-58.027c-6.827-20.48-25.6-34.133-47.787-34.133s-40.96 13.653-47.787 34.133h-58.027c-6.827-20.48-25.6-34.133-47.787-34.133s-40.96 13.653-47.787 34.133h-58.027c-6.827-20.48-25.6-34.133-47.787-34.133-29.013 0-51.2 22.187-51.2 51.2 0 22.187 13.653 40.96 34.133 47.787v58.027c-20.48 6.827-34.133 25.6-34.133 47.787s13.653 40.96 34.133 47.787v58.027c-20.48 6.827-34.133 25.6-34.133 47.787s13.653 40.96 34.133 47.787v58.027c-20.48 6.827-34.133 25.6-34.133 47.787s13.653 40.96 34.133 47.787v58.027c-20.48 6.827-34.133 25.6-34.133 47.787s13.653 40.96 34.133 47.787v58.027c-20.48 6.827-34.133 25.6-34.133 47.787s13.653 40.96 34.133 47.787v58.027c-20.48 6.827-34.133 25.6-34.133 47.787 0 29.013 22.187 51.2 51.2 51.2 22.187 0 40.96-13.653 47.787-34.133h58.027c6.827 20.48 25.6 34.133 47.787 34.133s40.96-13.653 47.787-34.133h58.027c6.827 20.48 25.6 34.133 47.787 34.133s40.96-13.653 47.787-34.133h58.027c6.827 20.48 25.6 34.133 47.787 34.133s40.96-13.653 47.787-34.133h58.027c6.827 20.48 25.6 34.133 47.787 34.133s40.96-13.653 47.787-34.133h58.027c6.827 20.48 25.6 34.133 47.787 34.133s40.96-13.653 47.787-34.133h58.027c6.827 20.48 25.6 34.133 47.787 34.133 29.013 0 51.2-22.187 51.2-51.2 0-22.187-13.653-40.96-34.133-47.787v-58.027c20.48-6.827 34.133-25.6 34.133-47.787s-13.653-40.96-34.133-47.787v-58.027c20.48-6.827 34.133-25.6 34.133-47.787s-13.653-40.96-34.133-47.787v-58.027c20.48-6.827 34.133-25.6 34.133-47.787s-13.653-40.96-34.133-47.787v-58.027c20.48-6.827 34.133-25.6 34.133-47.787s-13.653-40.96-34.133-47.787v-58.027c20.48-6.827 34.133-25.6 34.133-47.787zM887.467 823.467h-750.933v-750.933h750.933zM443.733 277.333l238.933 290.133 153.6-238.933v-204.8h-648.533l204.8 204.8zM341.333 516.267c-56.32 0-102.4 46.080-102.4 102.4s46.080 102.4 102.4 102.4c56.32 0 102.4-46.080 102.4-102.4s-46.080-102.4-102.4-102.4z" />
<glyph unicode="&#xe91f;" glyph-name="pinterest" horiz-adv-x="788" d="M317.046 296.369c-7.877-33.477-15.754-66.954-25.6-100.431-7.877-33.477-15.754-66.954-27.569-98.462-19.692-49.231-47.262-98.462-80.738-137.846-21.662-25.6-17.723-15.754-23.631-13.785-5.908 0-5.908 5.908-7.877 11.815-5.908 41.354-1.969 86.646 0 131.938 1.969 51.2 13.785 94.523 23.631 137.846 19.692 80.738 37.415 159.508 57.108 242.215 0 5.908 3.938 13.785 3.938 17.723-9.846 21.662-15.754 43.323-17.723 66.954q-3.938 41.354 5.908 76.8c9.846 41.354 35.446 78.769 74.831 92.554 23.631 7.877 51.2 3.938 66.954-5.908q25.6-15.754 35.446-49.231c5.908-23.631 0-53.169-3.938-74.831-9.846-47.262-23.631-84.677-37.415-129.969-5.908-23.631-11.815-47.262-5.908-70.892 3.938-23.631 15.754-39.385 33.477-51.2 15.754-11.815 35.446-17.723 63.015-17.723 49.231 1.969 82.708 33.477 104.369 61.046 35.446 47.262 57.108 110.277 66.954 185.108 1.969 23.631 3.938 53.169 1.969 78.769-3.938 51.2-19.692 92.554-45.292 124.062-23.631 29.538-57.108 53.169-98.462 66.954s-96.492 17.723-147.692 9.846c-90.585-15.754-155.569-68.923-192.985-139.815-19.692-37.415-33.477-80.738-33.477-133.908 0-41.354 9.846-72.862 27.569-98.462 3.938-7.877 11.815-15.754 17.723-23.631 7.877-13.785-1.969-31.508-5.908-45.292-3.938-17.723-3.938-41.354-23.631-41.354-7.877 0-17.723 5.908-25.6 9.846-51.2 27.569-82.708 80.738-94.523 147.692-7.877 39.385-7.877 86.646 0 126.031s21.662 74.831 37.415 102.4c31.508 59.077 78.769 106.338 135.877 139.815 43.323 27.569 92.554 45.292 153.6 53.169 19.692 3.938 41.354 3.938 63.015 5.908 64.985 1.969 126.031-11.815 171.323-31.508 47.262-21.662 84.677-49.231 116.185-84.677 33.477-37.415 57.108-78.769 72.862-129.969 7.877-27.569 15.754-57.108 15.754-90.585s-7.877-63.015-11.815-94.523c-19.692-110.277-72.862-200.862-151.631-254.031-19.692-11.815-43.323-23.631-68.923-31.508s-57.108-13.785-88.615-11.815c-31.508 3.938-57.108 11.815-78.769 23.631-19.692 11.815-39.385 27.569-51.2 49.231z" />
<glyph unicode="&#xe920;" glyph-name="point" horiz-adv-x="788" d="M393.846-56.123c0 0-378.092 421.415-378.092 630.154s169.354 378.092 378.092 378.092c208.738 0 378.092-169.354 378.092-378.092s-378.092-630.154-378.092-630.154zM393.846 826.092c-139.815 0-252.062-112.246-252.062-252.062s112.246-252.062 252.062-252.062c139.815 0 252.062 112.246 252.062 252.062s-112.246 252.062-252.062 252.062zM393.846 448c-68.923 0-126.031 57.108-126.031 126.031s57.108 126.031 126.031 126.031c68.923 0 126.031-57.108 126.031-126.031s-57.108-126.031-126.031-126.031z" />
<glyph unicode="&#xe921;" glyph-name="right-arrow" horiz-adv-x="559" d="M23.273 82.618l367.709 365.382-372.364 370.036c-11.636 13.964-18.618 30.255-18.618 48.873 0 39.564 30.255 69.818 69.818 69.818 18.618 0 34.909-6.982 48.873-18.618l418.909-418.909c11.636-13.964 20.945-30.255 20.945-51.2q0 0 0 0t0 0c0-20.945-9.309-37.236-20.945-51.2l-418.909-418.909c-13.964-11.636-30.255-18.618-48.873-18.618-39.564 0-69.818 30.255-69.818 69.818 0 20.945 9.309 39.564 23.273 53.527z" />
<glyph unicode="&#xe922;" glyph-name="search1" d="M984.178 106.667c17.067-17.067 28.444-39.822 28.444-65.422 0-51.2-42.667-93.867-93.867-93.867-25.6 0-48.356 11.378-65.422 28.444l-275.911 273.067c-56.889-31.289-122.311-51.2-190.578-51.2-207.644 0-375.467 167.822-375.467 375.467s167.822 375.467 375.467 375.467c207.644 0 375.467-167.822 375.467-375.467 0-68.267-19.911-133.689-51.2-190.578l273.067-275.911zM386.844 854.756c-156.444 0-281.6-125.156-281.6-281.6s125.156-281.6 281.6-281.6c156.444 0 281.6 125.156 281.6 281.6s-125.156 281.6-281.6 281.6z" />
<glyph unicode="&#xe923;" glyph-name="spech" horiz-adv-x="1058" d="M1007.213 355.672h-33.574v-83.934q0-5.036-0.839-10.072-0.839-3.357-2.518-6.715 0-1.679-0.839-2.518-0.839-3.357-2.518-5.875-0.839-1.679-1.679-3.357-2.518-3.357-5.875-6.715 0 0-0.839 0c-8.393-9.233-20.984-15.108-34.413-15.108q-0.839 0-0.839 0c-14.269 0-26.859 5.875-35.252 15.108l-120.026 119.187h-465.836c-27.698 0-50.361 22.662-50.361 50.361v503.607c0 27.698 22.662 50.361 50.361 50.361h705.049c27.698 0 50.361-22.662 50.361-50.361v-503.607c0-27.698-22.662-50.361-50.361-50.361zM747.016 305.311l106.597-105.757c18.466-17.626 42.807-28.538 69.666-28.538v-33.574c0-27.698-22.662-50.361-50.361-50.361h-532.984l-136.813-135.974c-8.393-9.233-20.984-15.108-35.252-15.108q0 0-0.839 0c-13.43 0-26.020 5.875-34.413 15.108q-0.839 0-0.839 0-3.357 3.357-5.875 7.554-0.839 0.839-1.679 2.518-1.679 2.518-2.518 5.875-0.839 0.839-0.839 2.518-1.679 3.357-2.518 6.715-0.839 5.036-0.839 10.072v100.721h-67.148c-27.698 0-50.361 22.662-50.361 50.361v570.754q0 0 0 0c0 27.698 22.662 50.361 50.361 50.361h151.082v-352.525c0-55.397 45.325-100.721 100.721-100.721z" />
<glyph unicode="&#xe924;" glyph-name="spech-balls" horiz-adv-x="1092" d="M573.44 116.907c-37.547 0-75.093 10.24-112.64 17.067-150.187-191.147-385.707-153.6-385.707-153.6 167.253 78.507 163.84 211.627 133.12 228.693-129.707 75.093-208.213 191.147-208.213 324.267 0 232.107 252.587 419.84 573.44 419.84s518.827-187.733 518.827-419.84c0-232.107-197.973-416.427-518.827-416.427zM290.133 625.493c-58.027 0-102.4-44.373-102.4-98.987 0-58.027 44.373-102.4 102.4-102.4 54.613 0 102.4 44.373 102.4 102.4 0 54.613-47.787 98.987-102.4 98.987zM546.133 625.493c-58.027 0-102.4-44.373-102.4-98.987 0-58.027 44.373-102.4 102.4-102.4 54.613 0 102.4 44.373 102.4 102.4 0 54.613-47.787 98.987-102.4 98.987zM802.133 625.493c-58.027 0-102.4-44.373-102.4-98.987 0-58.027 44.373-102.4 102.4-102.4 54.613 0 102.4 44.373 102.4 102.4 0 54.613-47.787 98.987-102.4 98.987z" />
<glyph unicode="&#xe925;" glyph-name="think-line" horiz-adv-x="37" d="M0 941.714c0 10.24 8.046 18.286 18.286 18.286s18.286-8.046 18.286-18.286v-987.429c0-10.24-8.046-18.286-18.286-18.286s-18.286 8.046-18.286 18.286z" />
<glyph unicode="&#xe926;" glyph-name="tumblr" horiz-adv-x="640" d="M640-9.6q-64-32-118.4-41.6-51.2-12.8-115.2-12.8c-44.8 0-73.6 3.2-108.8 16q-54.4 19.2-92.8 51.2-35.2 32-51.2 70.4-16 35.2-16 105.6v361.6h-137.6v144c41.6 12.8 86.4 32 115.2 57.6q41.6 35.2 70.4 86.4 25.6 51.2 35.2 131.2h144v-236.8h236.8v-182.4h-236.8v-262.4c0-60.8 0-96 6.4-112s22.4-35.2 38.4-44.8q32-19.2 76.8-19.2 76.8 0 153.6 51.2z" />
<glyph unicode="&#xe927;" glyph-name="twitter" horiz-adv-x="1210" d="M814.545 932.073c95.418 2.327 146.618-32.582 193.164-76.8 41.891 4.655 95.418 25.6 125.673 41.891q16.291 9.309 30.255 16.291c-18.618-46.545-41.891-86.109-79.127-114.036-6.982-6.982-16.291-13.964-25.6-18.618q0 0 0 0c51.2 0 95.418 23.273 137.309 37.236q0 0 0-2.327c-20.945-32.582-51.2-69.818-83.782-93.091q-18.618-16.291-37.236-30.255c0-58.182 0-111.709-11.636-158.255-60.509-274.618-223.418-460.8-479.418-539.927-90.764-27.927-239.709-41.891-344.436-13.964-53.527 11.636-100.073 27.927-144.291 46.545q-37.236 16.291-69.818 34.909-9.309 6.982-20.945 13.964c23.273 0 51.2-6.982 79.127-2.327 23.273 2.327 46.545 2.327 69.818 6.982 53.527 11.636 102.4 27.927 146.618 53.527 18.618 11.636 51.2 25.6 65.164 41.891-27.927 0-51.2 6.982-72.145 13.964-79.127 27.927-125.673 79.127-155.927 155.927 23.273-2.327 93.091-9.309 109.382 4.655-30.255 2.327-58.182 18.618-79.127 32.582-65.164 39.564-116.364 107.055-116.364 209.455q13.964-6.982 25.6-11.636c16.291-6.982 32.582-11.636 51.2-13.964 9.309-2.327 23.273-6.982 32.582-4.655q0 0 0 0c-11.636 13.964-32.582 25.6-44.218 39.564-41.891 51.2-79.127 130.327-55.855 221.091 6.982 25.6 16.291 46.545 25.6 65.164q2.327 0 2.327 0c4.655-11.636 13.964-18.618 20.945-25.6 20.945-27.927 46.545-51.2 74.473-69.818 88.436-69.818 169.891-114.036 297.891-144.291 32.582-9.309 69.818-16.291 109.382-16.291-11.636 32.582-6.982 83.782 2.327 116.364 20.945 76.8 67.491 132.655 137.309 162.909q25.6 11.636 53.527 16.291 16.291 2.327 30.255 4.655z" />
<glyph unicode="&#xe928;" glyph-name="up-arrow" horiz-adv-x="1877" d="M170.667-64c-72.533 0-128 55.467-128 128 0 34.133 12.8 64 34.133 89.6l768 768c25.6 25.6 55.467 38.4 93.867 38.4q0 0 0 0t0 0c34.133 0 68.267-12.8 93.867-38.4l768-768c21.333-25.6 34.133-55.467 34.133-89.6 0-72.533-55.467-128-128-128-34.133 0-64 12.8-89.6 34.133l-678.4 682.667-669.867-669.867c-25.6-29.867-59.733-46.933-98.133-46.933z" />
<glyph unicode="&#xe929;" glyph-name="users" horiz-adv-x="1425" d="M1422.47 2.783q0 0 0 0c0-24.487-20.035-44.522-44.522-44.522h-329.461c24.487 6.678 42.296 26.713 42.296 53.426q0 0 0 0c0 0 0 200.348-146.922 273.809-62.33 31.165-66.783 24.487-97.948 33.391l2.226 86.817c0 0-35.617 24.487-46.748 106.852-20.035-4.452-26.713 26.713-28.939 46.748-2.226 17.809-13.357 77.913 13.357 73.461-4.452 40.070-8.904 75.687-6.678 95.722 6.678 66.783 71.235 138.017 171.409 142.47 117.983-4.452 164.73-75.687 171.409-142.47 2.226-20.035-2.226-55.652-6.678-95.722 24.487 4.452 13.357-55.652 13.357-73.461-2.226-20.035-8.904-51.2-31.165-46.748-11.13-80.139-44.522-106.852-44.522-106.852v-86.817c0 0 22.261-13.357 113.53-51.2s64.557-8.904 138.017-46.748c117.983-57.878 117.983-218.157 117.983-218.157zM756.87 298.852c102.4-42.296 71.235-11.13 151.374-51.2 131.339-64.557 131.339-240.417 131.339-240.417q0 0 0 0c0-26.713-22.261-48.974-48.974-48.974h-941.635c-26.713 0-48.974 22.261-48.974 48.974q0 0 0 0c0 0 0 175.861 129.113 240.417 82.365 40.070 51.2 8.904 151.374 48.974 100.174 42.296 124.661 57.878 124.661 57.878l2.226 95.722c0 0-37.843 28.939-51.2 117.983-22.261-6.678-31.165 26.713-31.165 48.974-2.226 22.261-15.583 86.817 13.357 82.365-4.452 44.522-8.904 82.365-6.678 104.626 6.678 73.461 77.913 151.374 189.217 155.826 129.113-4.452 180.313-82.365 186.991-155.826 2.226-20.035-2.226-60.104-8.904-104.626 28.939 4.452 17.809-60.104 15.583-82.365 0-22.261-8.904-55.652-33.391-48.974-11.13-89.043-48.974-117.983-48.974-117.983l2.226-95.722c0 0 22.261-13.357 122.435-55.652z" />
<glyph unicode="&#xe92a;" glyph-name="view" horiz-adv-x="1707" d="M1681.067 465.067q0 0 0 0t0 0 0-4.267q0 0 0 0t0 0q-4.267-21.333-17.067-34.133-25.6-34.133-55.467-59.733c-102.4-106.667-221.867-200.533-354.133-268.8-81.067-42.667-170.667-76.8-260.267-93.867q-153.6-29.867-302.933 4.267c-174.933 38.4-332.8 132.267-469.333 243.2-64 51.2-128 110.933-183.467 174.933-21.333 25.6-21.333 59.733 0 89.6q29.867 29.867 55.467 59.733c106.667 102.4 226.133 196.267 354.133 264.533 81.067 42.667 170.667 81.067 264.533 98.133q149.333 25.6 302.933-4.267c174.933-38.4 328.533-132.267 469.333-247.467 64-51.2 128-106.667 179.2-170.667q12.8-17.067 17.067-34.133 0-4.267 0-4.267t0 0 0 0 0-4.267q0 0 0 0t0-4.267q0 0 0-4.267zM853.333 793.6c-170.667 0-311.467-136.533-311.467-311.467 0-170.667 140.8-311.467 311.467-311.467s311.467 140.8 311.467 311.467c0 174.933-140.8 311.467-311.467 311.467zM853.333 328.533c-85.333 0-157.867 68.267-157.867 153.6s72.533 157.867 157.867 157.867c85.333 0 153.6-72.533 153.6-157.867s-68.267-153.6-153.6-153.6z" />
</font>
</defs>
</svg>
